<?xml version="1.0" encoding="utf-8" standalone="no"?>
<!DOCTYPE svg PUBLIC "-//W3C//DTD SVG 1.1//EN"
  "http://www.w3.org/Graphics/SVG/1.1/DTD/svg11.dtd">
<svg xmlns:xlink="http://www.w3.org/1999/xlink" width="360pt" height="288pt" viewBox="0 0 360 288" xmlns="http://www.w3.org/2000/svg" version="1.1">
 <metadata>
  <rdf:RDF xmlns:dc="http://purl.org/dc/elements/1.1/" xmlns:cc="http://creativecommons.org/ns#" xmlns:rdf="http://www.w3.org/1999/02/22-rdf-syntax-ns#">
   <cc:Work>
    <dc:type rdf:resource="http://purl.org/dc/dcmitype/StillImage"/>
    <dc:date>2024-12-28T15:37:26.037968</dc:date>
    <dc:format>image/svg+xml</dc:format>
    <dc:creator>
     <cc:Agent>
      <dc:title>Matplotlib v3.9.2, https://matplotlib.org/</dc:title>
     </cc:Agent>
    </dc:creator>
   </cc:Work>
  </rdf:RDF>
 </metadata>
 <defs>
  <style type="text/css">*{stroke-linejoin: round; stroke-linecap: butt}</style>
 </defs>
 <g id="figure_1">
  <g id="patch_1">
   <path d="M 0 288
L 360 288
L 360 0
L 0 0
z
" style="fill: #ffffff"/>
  </g>
  <g id="axes_1">
   <g id="patch_2">
    <path d="M 69.168 81.923636
L 151.32885 81.923636
L 151.32885 10.8
L 69.168 10.8
z
" style="fill: #eeeeee"/>
   </g>
   <g id="matplotlib.axis_1">
    <g id="xtick_1">
     <g id="line2d_1">
      <path d="M 104.608607 81.923636
L 104.608607 10.8
" clip-path="url(#pb410326647)" style="fill: none; stroke-dasharray: 1.85,0.8; stroke-dashoffset: 0; stroke: #b2b2b2; stroke-width: 0.5"/>
     </g>
     <g id="line2d_2">
      <defs>
       <path id="m013cd7d25e" d="M 0 0
L 0 -3.5
" style="stroke: #000000; stroke-width: 0.8"/>
      </defs>
      <g>
       <use xlink:href="#m013cd7d25e" x="104.608607" y="81.923636" style="stroke: #000000; stroke-width: 0.8"/>
      </g>
     </g>
    </g>
    <g id="xtick_2">
     <g id="line2d_3">
      <path d="M 148.158436 81.923636
L 148.158436 10.8
" clip-path="url(#pb410326647)" style="fill: none; stroke-dasharray: 1.85,0.8; stroke-dashoffset: 0; stroke: #b2b2b2; stroke-width: 0.5"/>
     </g>
     <g id="line2d_4">
      <g>
       <use xlink:href="#m013cd7d25e" x="148.158436" y="81.923636" style="stroke: #000000; stroke-width: 0.8"/>
      </g>
     </g>
    </g>
   </g>
   <g id="matplotlib.axis_2">
    <g id="ytick_1">
     <g id="line2d_5">
      <path d="M 69.168 79.408227
L 151.32885 79.408227
" clip-path="url(#pb410326647)" style="fill: none; stroke-dasharray: 1.85,0.8; stroke-dashoffset: 0; stroke: #b2b2b2; stroke-width: 0.5"/>
     </g>
     <g id="line2d_6">
      <defs>
       <path id="md3f6238ff1" d="M 0 0
L 3.5 0
" style="stroke: #000000; stroke-width: 0.8"/>
      </defs>
      <g>
       <use xlink:href="#md3f6238ff1" x="69.168" y="79.408227" style="stroke: #000000; stroke-width: 0.8"/>
      </g>
     </g>
     <g id="text_1">
      <!-- −100 -->
      <g transform="translate(38.200813 83.207446) scale(0.1 -0.1)">
       <defs>
        <path id="DejaVuSans-2212" d="M 678 2272
L 4684 2272
L 4684 1741
L 678 1741
L 678 2272
z
" transform="scale(0.015625)"/>
        <path id="DejaVuSans-31" d="M 794 531
L 1825 531
L 1825 4091
L 703 3866
L 703 4441
L 1819 4666
L 2450 4666
L 2450 531
L 3481 531
L 3481 0
L 794 0
L 794 531
z
" transform="scale(0.015625)"/>
        <path id="DejaVuSans-30" d="M 2034 4250
Q 1547 4250 1301 3770
Q 1056 3291 1056 2328
Q 1056 1369 1301 889
Q 1547 409 2034 409
Q 2525 409 2770 889
Q 3016 1369 3016 2328
Q 3016 3291 2770 3770
Q 2525 4250 2034 4250
z
M 2034 4750
Q 2819 4750 3233 4129
Q 3647 3509 3647 2328
Q 3647 1150 3233 529
Q 2819 -91 2034 -91
Q 1250 -91 836 529
Q 422 1150 422 2328
Q 422 3509 836 4129
Q 1250 4750 2034 4750
z
" transform="scale(0.015625)"/>
       </defs>
       <use xlink:href="#DejaVuSans-2212"/>
       <use xlink:href="#DejaVuSans-31" x="83.789062"/>
       <use xlink:href="#DejaVuSans-30" x="147.412109"/>
       <use xlink:href="#DejaVuSans-30" x="211.035156"/>
      </g>
     </g>
    </g>
    <g id="ytick_2">
     <g id="line2d_7">
      <path d="M 69.168 45.069037
L 151.32885 45.069037
" clip-path="url(#pb410326647)" style="fill: none; stroke-dasharray: 1.85,0.8; stroke-dashoffset: 0; stroke: #b2b2b2; stroke-width: 0.5"/>
     </g>
     <g id="line2d_8">
      <g>
       <use xlink:href="#md3f6238ff1" x="69.168" y="45.069037" style="stroke: #000000; stroke-width: 0.8"/>
      </g>
     </g>
     <g id="text_2">
      <!-- 0 -->
      <g transform="translate(59.3055 48.868256) scale(0.1 -0.1)">
       <use xlink:href="#DejaVuSans-30"/>
      </g>
     </g>
    </g>
    <g id="text_3">
     <!-- Activity -->
     <g transform="translate(18.267813 68.800881) rotate(-90) scale(0.12 -0.12)">
      <defs>
       <path id="DejaVuSans-41" d="M 2188 4044
L 1331 1722
L 3047 1722
L 2188 4044
z
M 1831 4666
L 2547 4666
L 4325 0
L 3669 0
L 3244 1197
L 1141 1197
L 716 0
L 50 0
L 1831 4666
z
" transform="scale(0.015625)"/>
       <path id="DejaVuSans-63" d="M 3122 3366
L 3122 2828
Q 2878 2963 2633 3030
Q 2388 3097 2138 3097
Q 1578 3097 1268 2742
Q 959 2388 959 1747
Q 959 1106 1268 751
Q 1578 397 2138 397
Q 2388 397 2633 464
Q 2878 531 3122 666
L 3122 134
Q 2881 22 2623 -34
Q 2366 -91 2075 -91
Q 1284 -91 818 406
Q 353 903 353 1747
Q 353 2603 823 3093
Q 1294 3584 2113 3584
Q 2378 3584 2631 3529
Q 2884 3475 3122 3366
z
" transform="scale(0.015625)"/>
       <path id="DejaVuSans-74" d="M 1172 4494
L 1172 3500
L 2356 3500
L 2356 3053
L 1172 3053
L 1172 1153
Q 1172 725 1289 603
Q 1406 481 1766 481
L 2356 481
L 2356 0
L 1766 0
Q 1100 0 847 248
Q 594 497 594 1153
L 594 3053
L 172 3053
L 172 3500
L 594 3500
L 594 4494
L 1172 4494
z
" transform="scale(0.015625)"/>
       <path id="DejaVuSans-69" d="M 603 3500
L 1178 3500
L 1178 0
L 603 0
L 603 3500
z
M 603 4863
L 1178 4863
L 1178 4134
L 603 4134
L 603 4863
z
" transform="scale(0.015625)"/>
       <path id="DejaVuSans-76" d="M 191 3500
L 800 3500
L 1894 563
L 2988 3500
L 3597 3500
L 2284 0
L 1503 0
L 191 3500
z
" transform="scale(0.015625)"/>
       <path id="DejaVuSans-79" d="M 2059 -325
Q 1816 -950 1584 -1140
Q 1353 -1331 966 -1331
L 506 -1331
L 506 -850
L 844 -850
Q 1081 -850 1212 -737
Q 1344 -625 1503 -206
L 1606 56
L 191 3500
L 800 3500
L 1894 763
L 2988 3500
L 3597 3500
L 2059 -325
z
" transform="scale(0.015625)"/>
      </defs>
      <use xlink:href="#DejaVuSans-41"/>
      <use xlink:href="#DejaVuSans-63" x="66.658203"/>
      <use xlink:href="#DejaVuSans-74" x="121.638672"/>
      <use xlink:href="#DejaVuSans-69" x="160.847656"/>
      <use xlink:href="#DejaVuSans-76" x="188.630859"/>
      <use xlink:href="#DejaVuSans-69" x="247.810547"/>
      <use xlink:href="#DejaVuSans-74" x="275.59375"/>
      <use xlink:href="#DejaVuSans-79" x="314.802734"/>
     </g>
     <!-- (%) -->
     <g transform="translate(31.705188 56.744631) rotate(-90) scale(0.12 -0.12)">
      <defs>
       <path id="DejaVuSans-28" d="M 1984 4856
Q 1566 4138 1362 3434
Q 1159 2731 1159 2009
Q 1159 1288 1364 580
Q 1569 -128 1984 -844
L 1484 -844
Q 1016 -109 783 600
Q 550 1309 550 2009
Q 550 2706 781 3412
Q 1013 4119 1484 4856
L 1984 4856
z
" transform="scale(0.015625)"/>
       <path id="DejaVuSans-25" d="M 4653 2053
Q 4381 2053 4226 1822
Q 4072 1591 4072 1178
Q 4072 772 4226 539
Q 4381 306 4653 306
Q 4919 306 5073 539
Q 5228 772 5228 1178
Q 5228 1588 5073 1820
Q 4919 2053 4653 2053
z
M 4653 2450
Q 5147 2450 5437 2106
Q 5728 1763 5728 1178
Q 5728 594 5436 251
Q 5144 -91 4653 -91
Q 4153 -91 3862 251
Q 3572 594 3572 1178
Q 3572 1766 3864 2108
Q 4156 2450 4653 2450
z
M 1428 4353
Q 1159 4353 1004 4120
Q 850 3888 850 3481
Q 850 3069 1003 2837
Q 1156 2606 1428 2606
Q 1700 2606 1854 2837
Q 2009 3069 2009 3481
Q 2009 3884 1853 4118
Q 1697 4353 1428 4353
z
M 4250 4750
L 4750 4750
L 1831 -91
L 1331 -91
L 4250 4750
z
M 1428 4750
Q 1922 4750 2215 4408
Q 2509 4066 2509 3481
Q 2509 2891 2217 2550
Q 1925 2209 1428 2209
Q 931 2209 642 2551
Q 353 2894 353 3481
Q 353 4063 643 4406
Q 934 4750 1428 4750
z
" transform="scale(0.015625)"/>
       <path id="DejaVuSans-29" d="M 513 4856
L 1013 4856
Q 1481 4119 1714 3412
Q 1947 2706 1947 2009
Q 1947 1309 1714 600
Q 1481 -109 1013 -844
L 513 -844
Q 928 -128 1133 580
Q 1338 1288 1338 2009
Q 1338 2731 1133 3434
Q 928 4138 513 4856
z
" transform="scale(0.015625)"/>
      </defs>
      <use xlink:href="#DejaVuSans-28"/>
      <use xlink:href="#DejaVuSans-25" x="39.013672"/>
      <use xlink:href="#DejaVuSans-29" x="134.033203"/>
     </g>
    </g>
   </g>
   <g id="line2d_9">
    <defs>
     <path id="m81e6a79e02" d="M 0 2
C 0.530406 2 1.03916 1.789267 1.414214 1.414214
C 1.789267 1.03916 2 0.530406 2 0
C 2 -0.530406 1.789267 -1.03916 1.414214 -1.414214
C 1.03916 -1.789267 0.530406 -2 0 -2
C -0.530406 -2 -1.03916 -1.789267 -1.414214 -1.414214
C -1.789267 -1.03916 -2 -0.530406 -2 0
C -2 0.530406 -1.789267 1.03916 -1.414214 1.414214
C -1.03916 1.789267 -0.530406 2 0 2
z
" style="stroke: #1f77b4"/>
    </defs>
    <g clip-path="url(#pb410326647)">
     <use xlink:href="#m81e6a79e02" x="74.066537" y="45.069037" style="fill: #ffffff; stroke: #1f77b4"/>
     <use xlink:href="#m81e6a79e02" x="80.988806" y="43.841652" style="fill: #ffffff; stroke: #1f77b4"/>
     <use xlink:href="#m81e6a79e02" x="87.914989" y="45.069037" style="fill: #ffffff; stroke: #1f77b4"/>
     <use xlink:href="#m81e6a79e02" x="94.769529" y="46.400849" style="fill: #ffffff; stroke: #1f77b4"/>
     <use xlink:href="#m81e6a79e02" x="101.794998" y="45.069037" style="fill: #ffffff; stroke: #1f77b4"/>
     <use xlink:href="#m81e6a79e02" x="108.655164" y="56.558449" style="fill: #ffffff; stroke: #1f77b4"/>
     <use xlink:href="#m81e6a79e02" x="115.570277" y="68.379063" style="fill: #ffffff; stroke: #1f77b4"/>
     <use xlink:href="#m81e6a79e02" x="122.49646" y="71.203942" style="fill: #ffffff; stroke: #1f77b4"/>
     <use xlink:href="#m81e6a79e02" x="129.421412" y="75.024795" style="fill: #ffffff; stroke: #1f77b4"/>
     <use xlink:href="#m81e6a79e02" x="136.347595" y="76.933814" style="fill: #ffffff; stroke: #1f77b4"/>
     <use xlink:href="#m81e6a79e02" x="143.273778" y="77.112446" style="fill: #ffffff; stroke: #1f77b4"/>
    </g>
   </g>
   <g id="line2d_10">
    <path d="M 74.066537 44.460866
L 75.47893 44.463081
L 76.891322 44.466154
L 78.303715 44.470416
L 79.716108 44.476327
L 81.1285 44.484524
L 82.540893 44.495888
L 83.953286 44.511641
L 85.365678 44.533469
L 86.778071 44.563701
L 88.190464 44.605547
L 89.602856 44.663416
L 91.015249 44.743346
L 92.427642 44.853561
L 93.840034 45.005184
L 95.252427 45.213102
L 96.66482 45.49697
L 98.077212 45.882221
L 99.489605 46.400835
L 100.901998 47.091408
L 102.31439 47.99772
L 103.726783 49.164802
L 105.139176 50.631488
L 106.551568 52.41924
L 107.963961 54.518961
L 109.376354 56.880246
L 110.788746 59.409389
L 112.201139 61.980795
L 113.613532 64.460341
L 115.025924 66.732185
L 116.438317 68.71831
L 117.85071 70.384661
L 119.263102 71.735136
L 120.675495 72.799224
L 122.087888 73.619206
L 123.50028 74.240311
L 124.912673 74.704676
L 126.325066 75.048478
L 127.737458 75.301183
L 129.149851 75.48594
L 130.562244 75.620495
L 131.974636 75.718209
L 133.387029 75.789024
L 134.799422 75.840268
L 136.211814 75.877309
L 137.624207 75.904064
L 139.0366 75.923377
L 140.448992 75.937312
L 141.861385 75.947365
L 143.273778 75.954615
" clip-path="url(#pb410326647)" style="fill: none; stroke-dasharray: 5.55,2.4; stroke-dashoffset: 0; stroke: #000000; stroke-width: 1.5"/>
   </g>
   <g id="patch_3">
    <path d="M 69.168 81.923636
L 69.168 10.8
" style="fill: none; stroke: #bcbcbc; stroke-width: 0.8; stroke-linejoin: miter; stroke-linecap: square"/>
   </g>
   <g id="patch_4">
    <path d="M 151.32885 81.923636
L 151.32885 10.8
" style="fill: none; stroke: #bcbcbc; stroke-width: 0.8; stroke-linejoin: miter; stroke-linecap: square"/>
   </g>
   <g id="patch_5">
    <path d="M 69.168 81.923636
L 151.32885 81.923636
" style="fill: none; stroke: #bcbcbc; stroke-width: 0.8; stroke-linejoin: miter; stroke-linecap: square"/>
   </g>
   <g id="patch_6">
    <path d="M 69.168 10.8
L 151.32885 10.8
" style="fill: none; stroke: #bcbcbc; stroke-width: 0.8; stroke-linejoin: miter; stroke-linecap: square"/>
   </g>
  </g>
  <g id="axes_2">
   <g id="patch_7">
    <path d="M 163.652977 81.923636
L 245.813827 81.923636
L 245.813827 10.8
L 163.652977 10.8
z
" style="fill: #eeeeee"/>
   </g>
   <g id="matplotlib.axis_3">
    <g id="xtick_3">
     <g id="line2d_11">
      <path d="M 199.093584 81.923636
L 199.093584 10.8
" clip-path="url(#pfaeeb39fdd)" style="fill: none; stroke-dasharray: 1.85,0.8; stroke-dashoffset: 0; stroke: #b2b2b2; stroke-width: 0.5"/>
     </g>
     <g id="line2d_12">
      <g>
       <use xlink:href="#m013cd7d25e" x="199.093584" y="81.923636" style="stroke: #000000; stroke-width: 0.8"/>
      </g>
     </g>
    </g>
    <g id="xtick_4">
     <g id="line2d_13">
      <path d="M 242.643413 81.923636
L 242.643413 10.8
" clip-path="url(#pfaeeb39fdd)" style="fill: none; stroke-dasharray: 1.85,0.8; stroke-dashoffset: 0; stroke: #b2b2b2; stroke-width: 0.5"/>
     </g>
     <g id="line2d_14">
      <g>
       <use xlink:href="#m013cd7d25e" x="242.643413" y="81.923636" style="stroke: #000000; stroke-width: 0.8"/>
      </g>
     </g>
    </g>
   </g>
   <g id="matplotlib.axis_4">
    <g id="ytick_3">
     <g id="line2d_15">
      <path d="M 163.652977 79.408227
L 245.813827 79.408227
" clip-path="url(#pfaeeb39fdd)" style="fill: none; stroke-dasharray: 1.85,0.8; stroke-dashoffset: 0; stroke: #b2b2b2; stroke-width: 0.5"/>
     </g>
     <g id="line2d_16">
      <g>
       <use xlink:href="#md3f6238ff1" x="163.652977" y="79.408227" style="stroke: #000000; stroke-width: 0.8"/>
      </g>
     </g>
    </g>
    <g id="ytick_4">
     <g id="line2d_17">
      <path d="M 163.652977 45.069037
L 245.813827 45.069037
" clip-path="url(#pfaeeb39fdd)" style="fill: none; stroke-dasharray: 1.85,0.8; stroke-dashoffset: 0; stroke: #b2b2b2; stroke-width: 0.5"/>
     </g>
     <g id="line2d_18">
      <g>
       <use xlink:href="#md3f6238ff1" x="163.652977" y="45.069037" style="stroke: #000000; stroke-width: 0.8"/>
      </g>
     </g>
    </g>
   </g>
   <g id="line2d_19">
    <defs>
     <path id="md1960768ec" d="M 0 2
C 0.530406 2 1.03916 1.789267 1.414214 1.414214
C 1.789267 1.03916 2 0.530406 2 0
C 2 -0.530406 1.789267 -1.03916 1.414214 -1.414214
C 1.03916 -1.789267 0.530406 -2 0 -2
C -0.530406 -2 -1.03916 -1.789267 -1.414214 -1.414214
C -1.789267 -1.03916 -2 -0.530406 -2 0
C -2 0.530406 -1.789267 1.03916 -1.414214 1.414214
C -1.03916 1.789267 -0.530406 2 0 2
z
" style="stroke: #ff7f0e"/>
    </defs>
    <g clip-path="url(#pfaeeb39fdd)">
     <use xlink:href="#md1960768ec" x="168.551514" y="42.842931" style="fill: #ffffff; stroke: #ff7f0e"/>
     <use xlink:href="#md1960768ec" x="175.473783" y="42.596478" style="fill: #ffffff; stroke: #ff7f0e"/>
     <use xlink:href="#md1960768ec" x="182.399966" y="41.908527" style="fill: #ffffff; stroke: #ff7f0e"/>
     <use xlink:href="#md1960768ec" x="189.254506" y="45.069037" style="fill: #ffffff; stroke: #ff7f0e"/>
     <use xlink:href="#md1960768ec" x="196.279975" y="44.720632" style="fill: #ffffff; stroke: #ff7f0e"/>
     <use xlink:href="#md1960768ec" x="203.140141" y="42.7975" style="fill: #ffffff; stroke: #ff7f0e"/>
     <use xlink:href="#md1960768ec" x="210.055254" y="45.069037" style="fill: #ffffff; stroke: #ff7f0e"/>
     <use xlink:href="#md1960768ec" x="216.981437" y="51.205073" style="fill: #ffffff; stroke: #ff7f0e"/>
     <use xlink:href="#md1960768ec" x="223.906389" y="76.028942" style="fill: #ffffff; stroke: #ff7f0e"/>
     <use xlink:href="#md1960768ec" x="230.832572" y="76.892126" style="fill: #ffffff; stroke: #ff7f0e"/>
     <use xlink:href="#md1960768ec" x="237.758755" y="76.586713" style="fill: #ffffff; stroke: #ff7f0e"/>
    </g>
   </g>
   <g id="line2d_20">
    <path d="M 168.551514 43.55545
L 169.963907 43.55545
L 171.376299 43.55545
L 172.788692 43.55545
L 174.201085 43.55545
L 175.613477 43.55545
L 177.02587 43.55545
L 178.438263 43.55545
L 179.850655 43.55545
L 181.263048 43.55545
L 182.675441 43.55545
L 184.087833 43.55545
L 185.500226 43.55545
L 186.912619 43.55545
L 188.325011 43.55545
L 189.737404 43.55545
L 191.149797 43.55545
L 192.562189 43.55545
L 193.974582 43.555451
L 195.386975 43.555453
L 196.799367 43.555459
L 198.21176 43.555474
L 199.624153 43.555513
L 201.036545 43.555619
L 202.448938 43.555897
L 203.861331 43.556634
L 205.273723 43.558583
L 206.686116 43.563742
L 208.098509 43.57739
L 209.510901 43.613459
L 210.923294 43.708548
L 212.335687 43.957624
L 213.748079 44.599139
L 215.160472 46.182119
L 216.572865 49.707409
L 217.985257 56.0358
L 219.39765 63.969811
L 220.810043 70.422935
L 222.222436 74.066899
L 223.634828 75.714802
L 225.047221 76.384697
L 226.459614 76.645113
L 227.872006 76.744581
L 229.284399 76.782317
L 230.696792 76.796596
L 232.109184 76.801994
L 233.521577 76.804034
L 234.93397 76.804805
L 236.346362 76.805096
L 237.758755 76.805206
" clip-path="url(#pfaeeb39fdd)" style="fill: none; stroke-dasharray: 5.55,2.4; stroke-dashoffset: 0; stroke: #000000; stroke-width: 1.5"/>
   </g>
   <g id="patch_8">
    <path d="M 163.652977 81.923636
L 163.652977 10.8
" style="fill: none; stroke: #bcbcbc; stroke-width: 0.8; stroke-linejoin: miter; stroke-linecap: square"/>
   </g>
   <g id="patch_9">
    <path d="M 245.813827 81.923636
L 245.813827 10.8
" style="fill: none; stroke: #bcbcbc; stroke-width: 0.8; stroke-linejoin: miter; stroke-linecap: square"/>
   </g>
   <g id="patch_10">
    <path d="M 163.652977 81.923636
L 245.813827 81.923636
" style="fill: none; stroke: #bcbcbc; stroke-width: 0.8; stroke-linejoin: miter; stroke-linecap: square"/>
   </g>
   <g id="patch_11">
    <path d="M 163.652977 10.8
L 245.813827 10.8
" style="fill: none; stroke: #bcbcbc; stroke-width: 0.8; stroke-linejoin: miter; stroke-linecap: square"/>
   </g>
  </g>
  <g id="axes_3">
   <g id="patch_12">
    <path d="M 258.137954 81.923636
L 340.298804 81.923636
L 340.298804 10.8
L 258.137954 10.8
z
" style="fill: #eeeeee"/>
   </g>
   <g id="matplotlib.axis_5">
    <g id="xtick_5">
     <g id="line2d_21">
      <path d="M 293.578561 81.923636
L 293.578561 10.8
" clip-path="url(#p8247e0afea)" style="fill: none; stroke-dasharray: 1.85,0.8; stroke-dashoffset: 0; stroke: #b2b2b2; stroke-width: 0.5"/>
     </g>
     <g id="line2d_22">
      <g>
       <use xlink:href="#m013cd7d25e" x="293.578561" y="81.923636" style="stroke: #000000; stroke-width: 0.8"/>
      </g>
     </g>
    </g>
    <g id="xtick_6">
     <g id="line2d_23">
      <path d="M 337.12839 81.923636
L 337.12839 10.8
" clip-path="url(#p8247e0afea)" style="fill: none; stroke-dasharray: 1.85,0.8; stroke-dashoffset: 0; stroke: #b2b2b2; stroke-width: 0.5"/>
     </g>
     <g id="line2d_24">
      <g>
       <use xlink:href="#m013cd7d25e" x="337.12839" y="81.923636" style="stroke: #000000; stroke-width: 0.8"/>
      </g>
     </g>
    </g>
   </g>
   <g id="matplotlib.axis_6">
    <g id="ytick_5">
     <g id="line2d_25">
      <path d="M 258.137954 79.408227
L 340.298804 79.408227
" clip-path="url(#p8247e0afea)" style="fill: none; stroke-dasharray: 1.85,0.8; stroke-dashoffset: 0; stroke: #b2b2b2; stroke-width: 0.5"/>
     </g>
     <g id="line2d_26">
      <g>
       <use xlink:href="#md3f6238ff1" x="258.137954" y="79.408227" style="stroke: #000000; stroke-width: 0.8"/>
      </g>
     </g>
    </g>
    <g id="ytick_6">
     <g id="line2d_27">
      <path d="M 258.137954 45.069037
L 340.298804 45.069037
" clip-path="url(#p8247e0afea)" style="fill: none; stroke-dasharray: 1.85,0.8; stroke-dashoffset: 0; stroke: #b2b2b2; stroke-width: 0.5"/>
     </g>
     <g id="line2d_28">
      <g>
       <use xlink:href="#md3f6238ff1" x="258.137954" y="45.069037" style="stroke: #000000; stroke-width: 0.8"/>
      </g>
     </g>
    </g>
   </g>
   <g id="line2d_29">
    <defs>
     <path id="mcc820af115" d="M 0 2
C 0.530406 2 1.03916 1.789267 1.414214 1.414214
C 1.789267 1.03916 2 0.530406 2 0
C 2 -0.530406 1.789267 -1.03916 1.414214 -1.414214
C 1.03916 -1.789267 0.530406 -2 0 -2
C -0.530406 -2 -1.03916 -1.789267 -1.414214 -1.414214
C -1.789267 -1.03916 -2 -0.530406 -2 0
C -2 0.530406 -1.789267 1.03916 -1.414214 1.414214
C -1.03916 1.789267 -0.530406 2 0 2
z
" style="stroke: #2ca02c"/>
    </defs>
    <g clip-path="url(#p8247e0afea)">
     <use xlink:href="#mcc820af115" x="267.308313" y="44.659543" style="fill: #ffffff; stroke: #2ca02c"/>
     <use xlink:href="#mcc820af115" x="274.24804" y="44.115953" style="fill: #ffffff; stroke: #2ca02c"/>
     <use xlink:href="#mcc820af115" x="281.183235" y="44.677159" style="fill: #ffffff; stroke: #2ca02c"/>
     <use xlink:href="#mcc820af115" x="287.957496" y="44.6888" style="fill: #ffffff; stroke: #2ca02c"/>
     <use xlink:href="#mcc820af115" x="294.883679" y="44.253653" style="fill: #ffffff; stroke: #2ca02c"/>
     <use xlink:href="#mcc820af115" x="301.293833" y="43.454615" style="fill: #ffffff; stroke: #2ca02c"/>
     <use xlink:href="#mcc820af115" x="308.226194" y="41.537458" style="fill: #ffffff; stroke: #2ca02c"/>
     <use xlink:href="#mcc820af115" x="315.150318" y="36.461473" style="fill: #ffffff; stroke: #2ca02c"/>
     <use xlink:href="#mcc820af115" x="322.075815" y="25.570215" style="fill: #ffffff; stroke: #2ca02c"/>
     <use xlink:href="#mcc820af115" x="328.996275" y="22.907692" style="fill: #ffffff; stroke: #2ca02c"/>
     <use xlink:href="#mcc820af115" x="336.56422" y="25.991626" style="fill: #ffffff; stroke: #2ca02c"/>
    </g>
   </g>
   <g id="line2d_30">
    <path d="M 267.308313 44.13861
L 268.721699 44.138609
L 270.135085 44.138609
L 271.548471 44.138608
L 272.961857 44.138607
L 274.375242 44.138604
L 275.788628 44.1386
L 277.202014 44.138594
L 278.6154 44.138583
L 280.028786 44.138566
L 281.442172 44.138536
L 282.855557 44.138487
L 284.268943 44.138405
L 285.682329 44.138269
L 287.095715 44.138042
L 288.509101 44.137664
L 289.922487 44.137035
L 291.335873 44.135986
L 292.749258 44.134239
L 294.162644 44.131331
L 295.57603 44.126487
L 296.989416 44.118425
L 298.402802 44.105011
L 299.816188 44.082705
L 301.229573 44.045661
L 302.642959 43.984262
L 304.056345 43.882824
L 305.469731 43.716141
L 306.883117 43.44466
L 308.296503 43.008799
L 309.709889 42.324916
L 311.123274 41.289622
L 312.53666 39.804316
L 313.950046 37.829734
L 315.363432 35.4547
L 316.776818 32.919034
L 318.190204 30.534228
L 319.603589 28.544282
L 321.016975 27.043067
L 322.430361 25.994465
L 323.843747 25.30079
L 325.257133 24.858271
L 326.670519 24.582479
L 328.083905 24.413087
L 329.49729 24.309977
L 330.910676 24.247556
L 332.324062 24.209894
L 333.737448 24.187214
L 335.150834 24.173574
L 336.56422 24.165377
" clip-path="url(#p8247e0afea)" style="fill: none; stroke-dasharray: 5.55,2.4; stroke-dashoffset: 0; stroke: #000000; stroke-width: 1.5"/>
   </g>
   <g id="patch_13">
    <path d="M 258.137954 81.923636
L 258.137954 10.8
" style="fill: none; stroke: #bcbcbc; stroke-width: 0.8; stroke-linejoin: miter; stroke-linecap: square"/>
   </g>
   <g id="patch_14">
    <path d="M 340.298804 81.923636
L 340.298804 10.8
" style="fill: none; stroke: #bcbcbc; stroke-width: 0.8; stroke-linejoin: miter; stroke-linecap: square"/>
   </g>
   <g id="patch_15">
    <path d="M 258.137954 81.923636
L 340.298804 81.923636
" style="fill: none; stroke: #bcbcbc; stroke-width: 0.8; stroke-linejoin: miter; stroke-linecap: square"/>
   </g>
   <g id="patch_16">
    <path d="M 258.137954 10.8
L 340.298804 10.8
" style="fill: none; stroke: #bcbcbc; stroke-width: 0.8; stroke-linejoin: miter; stroke-linecap: square"/>
   </g>
  </g>
  <g id="axes_4">
   <g id="patch_17">
    <path d="M 69.168 163.715818
L 151.32885 163.715818
L 151.32885 92.592182
L 69.168 92.592182
z
" style="fill: #eeeeee"/>
   </g>
   <g id="matplotlib.axis_7">
    <g id="xtick_7">
     <g id="line2d_31">
      <path d="M 104.608607 163.715818
L 104.608607 92.592182
" clip-path="url(#p6e6c542a4e)" style="fill: none; stroke-dasharray: 1.85,0.8; stroke-dashoffset: 0; stroke: #b2b2b2; stroke-width: 0.5"/>
     </g>
     <g id="line2d_32">
      <g>
       <use xlink:href="#m013cd7d25e" x="104.608607" y="163.715818" style="stroke: #000000; stroke-width: 0.8"/>
      </g>
     </g>
    </g>
    <g id="xtick_8">
     <g id="line2d_33">
      <path d="M 148.158436 163.715818
L 148.158436 92.592182
" clip-path="url(#p6e6c542a4e)" style="fill: none; stroke-dasharray: 1.85,0.8; stroke-dashoffset: 0; stroke: #b2b2b2; stroke-width: 0.5"/>
     </g>
     <g id="line2d_34">
      <g>
       <use xlink:href="#m013cd7d25e" x="148.158436" y="163.715818" style="stroke: #000000; stroke-width: 0.8"/>
      </g>
     </g>
    </g>
   </g>
   <g id="matplotlib.axis_8">
    <g id="ytick_7">
     <g id="line2d_35">
      <path d="M 69.168 161.200409
L 151.32885 161.200409
" clip-path="url(#p6e6c542a4e)" style="fill: none; stroke-dasharray: 1.85,0.8; stroke-dashoffset: 0; stroke: #b2b2b2; stroke-width: 0.5"/>
     </g>
     <g id="line2d_36">
      <g>
       <use xlink:href="#md3f6238ff1" x="69.168" y="161.200409" style="stroke: #000000; stroke-width: 0.8"/>
      </g>
     </g>
     <g id="text_4">
      <!-- −100 -->
      <g transform="translate(38.200813 164.999627) scale(0.1 -0.1)">
       <use xlink:href="#DejaVuSans-2212"/>
       <use xlink:href="#DejaVuSans-31" x="83.789062"/>
       <use xlink:href="#DejaVuSans-30" x="147.412109"/>
       <use xlink:href="#DejaVuSans-30" x="211.035156"/>
      </g>
     </g>
    </g>
    <g id="ytick_8">
     <g id="line2d_37">
      <path d="M 69.168 126.861219
L 151.32885 126.861219
" clip-path="url(#p6e6c542a4e)" style="fill: none; stroke-dasharray: 1.85,0.8; stroke-dashoffset: 0; stroke: #b2b2b2; stroke-width: 0.5"/>
     </g>
     <g id="line2d_38">
      <g>
       <use xlink:href="#md3f6238ff1" x="69.168" y="126.861219" style="stroke: #000000; stroke-width: 0.8"/>
      </g>
     </g>
     <g id="text_5">
      <!-- 0 -->
      <g transform="translate(59.3055 130.660438) scale(0.1 -0.1)">
       <use xlink:href="#DejaVuSans-30"/>
      </g>
     </g>
    </g>
    <g id="text_6">
     <!-- Activity -->
     <g transform="translate(18.267813 150.593063) rotate(-90) scale(0.12 -0.12)">
      <use xlink:href="#DejaVuSans-41"/>
      <use xlink:href="#DejaVuSans-63" x="66.658203"/>
      <use xlink:href="#DejaVuSans-74" x="121.638672"/>
      <use xlink:href="#DejaVuSans-69" x="160.847656"/>
      <use xlink:href="#DejaVuSans-76" x="188.630859"/>
      <use xlink:href="#DejaVuSans-69" x="247.810547"/>
      <use xlink:href="#DejaVuSans-74" x="275.59375"/>
      <use xlink:href="#DejaVuSans-79" x="314.802734"/>
     </g>
     <!-- (%) -->
     <g transform="translate(31.705188 138.536812) rotate(-90) scale(0.12 -0.12)">
      <use xlink:href="#DejaVuSans-28"/>
      <use xlink:href="#DejaVuSans-25" x="39.013672"/>
      <use xlink:href="#DejaVuSans-29" x="134.033203"/>
     </g>
    </g>
   </g>
   <g id="line2d_39">
    <defs>
     <path id="m647df7a23a" d="M 0 2
C 0.530406 2 1.03916 1.789267 1.414214 1.414214
C 1.789267 1.03916 2 0.530406 2 0
C 2 -0.530406 1.789267 -1.03916 1.414214 -1.414214
C 1.03916 -1.789267 0.530406 -2 0 -2
C -0.530406 -2 -1.03916 -1.789267 -1.414214 -1.414214
C -1.789267 -1.03916 -2 -0.530406 -2 0
C -2 0.530406 -1.789267 1.03916 -1.414214 1.414214
C -1.03916 1.789267 -0.530406 2 0 2
z
" style="stroke: #d62728"/>
    </defs>
    <g clip-path="url(#p6e6c542a4e)">
     <use xlink:href="#m647df7a23a" x="73.951979" y="127.913647" style="fill: #ffffff; stroke: #d62728"/>
     <use xlink:href="#m647df7a23a" x="80.988806" y="127.814578" style="fill: #ffffff; stroke: #d62728"/>
     <use xlink:href="#m647df7a23a" x="87.914989" y="127.190395" style="fill: #ffffff; stroke: #d62728"/>
     <use xlink:href="#m647df7a23a" x="94.769529" y="127.370195" style="fill: #ffffff; stroke: #d62728"/>
     <use xlink:href="#m647df7a23a" x="101.794998" y="127.847578" style="fill: #ffffff; stroke: #d62728"/>
     <use xlink:href="#m647df7a23a" x="108.655164" y="128.521828" style="fill: #ffffff; stroke: #d62728"/>
     <use xlink:href="#m647df7a23a" x="115.570277" y="127.635637" style="fill: #ffffff; stroke: #d62728"/>
     <use xlink:href="#m647df7a23a" x="122.49646" y="126.349359" style="fill: #ffffff; stroke: #d62728"/>
     <use xlink:href="#m647df7a23a" x="129.421412" y="115.017152" style="fill: #ffffff; stroke: #d62728"/>
     <use xlink:href="#m647df7a23a" x="136.347595" y="101.314305" style="fill: #ffffff; stroke: #d62728"/>
     <use xlink:href="#m647df7a23a" x="143.273778" y="105.617005" style="fill: #ffffff; stroke: #d62728"/>
    </g>
   </g>
   <g id="line2d_40">
    <path d="M 73.951979 127.58063
L 75.366709 127.58063
L 76.78144 127.58063
L 78.19617 127.58063
L 79.610901 127.58063
L 81.025632 127.58063
L 82.440362 127.58063
L 83.855093 127.58063
L 85.269823 127.58063
L 86.684554 127.58063
L 88.099285 127.58063
L 89.514015 127.58063
L 90.928746 127.58063
L 92.343476 127.58063
L 93.758207 127.58063
L 95.172938 127.58063
L 96.587668 127.58063
L 98.002399 127.58063
L 99.417129 127.58063
L 100.83186 127.58063
L 102.246591 127.58063
L 103.661321 127.58063
L 105.076052 127.58063
L 106.490782 127.58063
L 107.905513 127.58063
L 109.320243 127.58063
L 110.734974 127.58063
L 112.149705 127.58063
L 113.564435 127.58063
L 114.979166 127.58063
L 116.393896 127.58063
L 117.808627 127.58063
L 119.223358 127.58063
L 120.638088 127.58063
L 122.052819 127.58063
L 123.467549 127.580628
L 124.88228 127.580546
L 126.297011 127.576315
L 127.711741 127.359681
L 129.126472 119.78334
L 130.541202 104.404381
L 131.955933 103.484689
L 133.370664 103.466171
L 134.785394 103.465812
L 136.200125 103.465805
L 137.614855 103.465805
L 139.029586 103.465805
L 140.444317 103.465805
L 141.859047 103.465805
L 143.273778 103.465805
" clip-path="url(#p6e6c542a4e)" style="fill: none; stroke-dasharray: 5.55,2.4; stroke-dashoffset: 0; stroke: #000000; stroke-width: 1.5"/>
   </g>
   <g id="patch_18">
    <path d="M 69.168 163.715818
L 69.168 92.592182
" style="fill: none; stroke: #bcbcbc; stroke-width: 0.8; stroke-linejoin: miter; stroke-linecap: square"/>
   </g>
   <g id="patch_19">
    <path d="M 151.32885 163.715818
L 151.32885 92.592182
" style="fill: none; stroke: #bcbcbc; stroke-width: 0.8; stroke-linejoin: miter; stroke-linecap: square"/>
   </g>
   <g id="patch_20">
    <path d="M 69.168 163.715818
L 151.32885 163.715818
" style="fill: none; stroke: #bcbcbc; stroke-width: 0.8; stroke-linejoin: miter; stroke-linecap: square"/>
   </g>
   <g id="patch_21">
    <path d="M 69.168 92.592182
L 151.32885 92.592182
" style="fill: none; stroke: #bcbcbc; stroke-width: 0.8; stroke-linejoin: miter; stroke-linecap: square"/>
   </g>
  </g>
  <g id="axes_5">
   <g id="patch_22">
    <path d="M 163.652977 163.715818
L 245.813827 163.715818
L 245.813827 92.592182
L 163.652977 92.592182
z
" style="fill: #eeeeee"/>
   </g>
   <g id="matplotlib.axis_9">
    <g id="xtick_9">
     <g id="line2d_41">
      <path d="M 199.093584 163.715818
L 199.093584 92.592182
" clip-path="url(#p83d4d17fda)" style="fill: none; stroke-dasharray: 1.85,0.8; stroke-dashoffset: 0; stroke: #b2b2b2; stroke-width: 0.5"/>
     </g>
     <g id="line2d_42">
      <g>
       <use xlink:href="#m013cd7d25e" x="199.093584" y="163.715818" style="stroke: #000000; stroke-width: 0.8"/>
      </g>
     </g>
    </g>
    <g id="xtick_10">
     <g id="line2d_43">
      <path d="M 242.643413 163.715818
L 242.643413 92.592182
" clip-path="url(#p83d4d17fda)" style="fill: none; stroke-dasharray: 1.85,0.8; stroke-dashoffset: 0; stroke: #b2b2b2; stroke-width: 0.5"/>
     </g>
     <g id="line2d_44">
      <g>
       <use xlink:href="#m013cd7d25e" x="242.643413" y="163.715818" style="stroke: #000000; stroke-width: 0.8"/>
      </g>
     </g>
    </g>
   </g>
   <g id="matplotlib.axis_10">
    <g id="ytick_9">
     <g id="line2d_45">
      <path d="M 163.652977 161.200409
L 245.813827 161.200409
" clip-path="url(#p83d4d17fda)" style="fill: none; stroke-dasharray: 1.85,0.8; stroke-dashoffset: 0; stroke: #b2b2b2; stroke-width: 0.5"/>
     </g>
     <g id="line2d_46">
      <g>
       <use xlink:href="#md3f6238ff1" x="163.652977" y="161.200409" style="stroke: #000000; stroke-width: 0.8"/>
      </g>
     </g>
    </g>
    <g id="ytick_10">
     <g id="line2d_47">
      <path d="M 163.652977 126.861219
L 245.813827 126.861219
" clip-path="url(#p83d4d17fda)" style="fill: none; stroke-dasharray: 1.85,0.8; stroke-dashoffset: 0; stroke: #b2b2b2; stroke-width: 0.5"/>
     </g>
     <g id="line2d_48">
      <g>
       <use xlink:href="#md3f6238ff1" x="163.652977" y="126.861219" style="stroke: #000000; stroke-width: 0.8"/>
      </g>
     </g>
    </g>
   </g>
   <g id="line2d_49">
    <defs>
     <path id="mac0564f90b" d="M 0 2
C 0.530406 2 1.03916 1.789267 1.414214 1.414214
C 1.789267 1.03916 2 0.530406 2 0
C 2 -0.530406 1.789267 -1.03916 1.414214 -1.414214
C 1.03916 -1.789267 0.530406 -2 0 -2
C -0.530406 -2 -1.03916 -1.789267 -1.414214 -1.414214
C -1.789267 -1.03916 -2 -0.530406 -2 0
C -2 0.530406 -1.789267 1.03916 -1.414214 1.414214
C -1.03916 1.789267 -0.530406 2 0 2
z
" style="stroke: #9467bd"/>
    </defs>
    <g clip-path="url(#p83d4d17fda)">
     <use xlink:href="#mac0564f90b" x="168.551514" y="127.879857" style="fill: #ffffff; stroke: #9467bd"/>
     <use xlink:href="#mac0564f90b" x="175.473783" y="123.92618" style="fill: #ffffff; stroke: #9467bd"/>
     <use xlink:href="#mac0564f90b" x="182.399966" y="125.523845" style="fill: #ffffff; stroke: #9467bd"/>
     <use xlink:href="#mac0564f90b" x="189.254506" y="125.745333" style="fill: #ffffff; stroke: #9467bd"/>
     <use xlink:href="#mac0564f90b" x="196.279975" y="123.82354" style="fill: #ffffff; stroke: #9467bd"/>
     <use xlink:href="#mac0564f90b" x="203.140141" y="119.996712" style="fill: #ffffff; stroke: #9467bd"/>
     <use xlink:href="#mac0564f90b" x="210.055254" y="125.578857" style="fill: #ffffff; stroke: #9467bd"/>
     <use xlink:href="#mac0564f90b" x="216.981437" y="152.392166" style="fill: #ffffff; stroke: #9467bd"/>
     <use xlink:href="#mac0564f90b" x="223.906389" y="160.03995" style="fill: #ffffff; stroke: #9467bd"/>
     <use xlink:href="#mac0564f90b" x="230.832572" y="160.131807" style="fill: #ffffff; stroke: #9467bd"/>
     <use xlink:href="#mac0564f90b" x="237.758755" y="160.482926" style="fill: #ffffff; stroke: #9467bd"/>
    </g>
   </g>
   <g id="line2d_50">
    <path d="M 168.551514 124.492296
L 169.963907 124.492296
L 171.376299 124.492296
L 172.788692 124.492296
L 174.201085 124.492296
L 175.613477 124.492296
L 177.02587 124.492296
L 178.438263 124.492296
L 179.850655 124.492296
L 181.263048 124.492296
L 182.675441 124.492296
L 184.087833 124.492296
L 185.500226 124.492296
L 186.912619 124.492296
L 188.325011 124.492296
L 189.737404 124.492297
L 191.149797 124.492298
L 192.562189 124.492302
L 193.974582 124.492311
L 195.386975 124.492337
L 196.799367 124.492404
L 198.21176 124.492582
L 199.624153 124.493058
L 201.036545 124.494322
L 202.448938 124.497685
L 203.861331 124.50663
L 205.273723 124.530405
L 206.686116 124.593504
L 208.098509 124.760296
L 209.510901 125.196534
L 210.923294 126.306554
L 212.335687 128.943969
L 213.748079 134.306714
L 215.160472 142.428023
L 216.572865 150.52503
L 217.985257 155.845215
L 219.39765 158.454009
L 220.810043 159.550473
L 222.222436 159.981138
L 223.634828 160.145763
L 225.047221 160.208037
L 226.459614 160.2315
L 227.872006 160.240328
L 229.284399 160.243647
L 230.696792 160.244894
L 232.109184 160.245363
L 233.521577 160.24554
L 234.93397 160.245606
L 236.346362 160.245631
L 237.758755 160.24564
" clip-path="url(#p83d4d17fda)" style="fill: none; stroke-dasharray: 5.55,2.4; stroke-dashoffset: 0; stroke: #000000; stroke-width: 1.5"/>
   </g>
   <g id="patch_23">
    <path d="M 163.652977 163.715818
L 163.652977 92.592182
" style="fill: none; stroke: #bcbcbc; stroke-width: 0.8; stroke-linejoin: miter; stroke-linecap: square"/>
   </g>
   <g id="patch_24">
    <path d="M 245.813827 163.715818
L 245.813827 92.592182
" style="fill: none; stroke: #bcbcbc; stroke-width: 0.8; stroke-linejoin: miter; stroke-linecap: square"/>
   </g>
   <g id="patch_25">
    <path d="M 163.652977 163.715818
L 245.813827 163.715818
" style="fill: none; stroke: #bcbcbc; stroke-width: 0.8; stroke-linejoin: miter; stroke-linecap: square"/>
   </g>
   <g id="patch_26">
    <path d="M 163.652977 92.592182
L 245.813827 92.592182
" style="fill: none; stroke: #bcbcbc; stroke-width: 0.8; stroke-linejoin: miter; stroke-linecap: square"/>
   </g>
  </g>
  <g id="axes_6">
   <g id="patch_27">
    <path d="M 258.137954 163.715818
L 340.298804 163.715818
L 340.298804 92.592182
L 258.137954 92.592182
z
" style="fill: #eeeeee"/>
   </g>
   <g id="matplotlib.axis_11">
    <g id="xtick_11">
     <g id="line2d_51">
      <path d="M 293.578561 163.715818
L 293.578561 92.592182
" clip-path="url(#pfd55b35341)" style="fill: none; stroke-dasharray: 1.85,0.8; stroke-dashoffset: 0; stroke: #b2b2b2; stroke-width: 0.5"/>
     </g>
     <g id="line2d_52">
      <g>
       <use xlink:href="#m013cd7d25e" x="293.578561" y="163.715818" style="stroke: #000000; stroke-width: 0.8"/>
      </g>
     </g>
    </g>
    <g id="xtick_12">
     <g id="line2d_53">
      <path d="M 337.12839 163.715818
L 337.12839 92.592182
" clip-path="url(#pfd55b35341)" style="fill: none; stroke-dasharray: 1.85,0.8; stroke-dashoffset: 0; stroke: #b2b2b2; stroke-width: 0.5"/>
     </g>
     <g id="line2d_54">
      <g>
       <use xlink:href="#m013cd7d25e" x="337.12839" y="163.715818" style="stroke: #000000; stroke-width: 0.8"/>
      </g>
     </g>
    </g>
   </g>
   <g id="matplotlib.axis_12">
    <g id="ytick_11">
     <g id="line2d_55">
      <path d="M 258.137954 161.200409
L 340.298804 161.200409
" clip-path="url(#pfd55b35341)" style="fill: none; stroke-dasharray: 1.85,0.8; stroke-dashoffset: 0; stroke: #b2b2b2; stroke-width: 0.5"/>
     </g>
     <g id="line2d_56">
      <g>
       <use xlink:href="#md3f6238ff1" x="258.137954" y="161.200409" style="stroke: #000000; stroke-width: 0.8"/>
      </g>
     </g>
    </g>
    <g id="ytick_12">
     <g id="line2d_57">
      <path d="M 258.137954 126.861219
L 340.298804 126.861219
" clip-path="url(#pfd55b35341)" style="fill: none; stroke-dasharray: 1.85,0.8; stroke-dashoffset: 0; stroke: #b2b2b2; stroke-width: 0.5"/>
     </g>
     <g id="line2d_58">
      <g>
       <use xlink:href="#md3f6238ff1" x="258.137954" y="126.861219" style="stroke: #000000; stroke-width: 0.8"/>
      </g>
     </g>
    </g>
   </g>
   <g id="line2d_59">
    <defs>
     <path id="m480298ae3e" d="M 0 2
C 0.530406 2 1.03916 1.789267 1.414214 1.414214
C 1.789267 1.03916 2 0.530406 2 0
C 2 -0.530406 1.789267 -1.03916 1.414214 -1.414214
C 1.03916 -1.789267 0.530406 -2 0 -2
C -0.530406 -2 -1.03916 -1.789267 -1.414214 -1.414214
C -1.789267 -1.03916 -2 -0.530406 -2 0
C -2 0.530406 -1.789267 1.03916 -1.414214 1.414214
C -1.03916 1.789267 -0.530406 2 0 2
z
" style="stroke: #8c564b"/>
    </defs>
    <g clip-path="url(#pfd55b35341)">
     <use xlink:href="#m480298ae3e" x="266.15073" y="130.641689" style="fill: #ffffff; stroke: #8c564b"/>
     <use xlink:href="#m480298ae3e" x="273.173907" y="132.492228" style="fill: #ffffff; stroke: #8c564b"/>
     <use xlink:href="#m480298ae3e" x="280.211395" y="130.325391" style="fill: #ffffff; stroke: #8c564b"/>
     <use xlink:href="#m480298ae3e" x="286.959975" y="131.460336" style="fill: #ffffff; stroke: #8c564b"/>
     <use xlink:href="#m480298ae3e" x="293.945917" y="129.521167" style="fill: #ffffff; stroke: #8c564b"/>
     <use xlink:href="#m480298ae3e" x="300.812341" y="128.469117" style="fill: #ffffff; stroke: #8c564b"/>
     <use xlink:href="#m480298ae3e" x="307.745192" y="132.051141" style="fill: #ffffff; stroke: #8c564b"/>
     <use xlink:href="#m480298ae3e" x="314.671375" y="128.998868" style="fill: #ffffff; stroke: #8c564b"/>
     <use xlink:href="#m480298ae3e" x="321.597558" y="133.084442" style="fill: #ffffff; stroke: #8c564b"/>
     <use xlink:href="#m480298ae3e" x="328.523247" y="141.882039" style="fill: #ffffff; stroke: #8c564b"/>
     <use xlink:href="#m480298ae3e" x="335.450253" y="144.812237" style="fill: #ffffff; stroke: #8c564b"/>
    </g>
   </g>
   <g id="line2d_60">
    <path d="M 266.15073 130.499127
L 267.565006 130.499127
L 268.979282 130.499127
L 270.393558 130.499127
L 271.807834 130.499127
L 273.22211 130.499127
L 274.636386 130.499127
L 276.050662 130.499127
L 277.464938 130.499127
L 278.879214 130.499127
L 280.29349 130.499127
L 281.707766 130.499127
L 283.122042 130.499127
L 284.536318 130.499127
L 285.950594 130.499128
L 287.36487 130.499128
L 288.779146 130.499129
L 290.193422 130.499131
L 291.607697 130.499134
L 293.021973 130.49914
L 294.436249 130.49915
L 295.850525 130.49917
L 297.264801 130.499205
L 298.679077 130.499271
L 300.093353 130.499392
L 301.507629 130.499615
L 302.921905 130.500025
L 304.336181 130.500779
L 305.750457 130.502167
L 307.164733 130.504721
L 308.579009 130.509418
L 309.993285 130.518054
L 311.407561 130.533919
L 312.821837 130.563027
L 314.236113 130.616287
L 315.650389 130.713278
L 317.064665 130.888383
L 318.478941 131.199614
L 319.893217 131.737757
L 321.307493 132.62535
L 322.721769 133.981226
L 324.136045 135.827611
L 325.550321 137.984318
L 326.964597 140.094728
L 328.378873 141.830788
L 329.793149 143.066271
L 331.207425 143.857696
L 332.621701 144.331024
L 334.035977 144.602565
L 335.450253 144.754635
" clip-path="url(#pfd55b35341)" style="fill: none; stroke-dasharray: 5.55,2.4; stroke-dashoffset: 0; stroke: #000000; stroke-width: 1.5"/>
   </g>
   <g id="patch_28">
    <path d="M 258.137954 163.715818
L 258.137954 92.592182
" style="fill: none; stroke: #bcbcbc; stroke-width: 0.8; stroke-linejoin: miter; stroke-linecap: square"/>
   </g>
   <g id="patch_29">
    <path d="M 340.298804 163.715818
L 340.298804 92.592182
" style="fill: none; stroke: #bcbcbc; stroke-width: 0.8; stroke-linejoin: miter; stroke-linecap: square"/>
   </g>
   <g id="patch_30">
    <path d="M 258.137954 163.715818
L 340.298804 163.715818
" style="fill: none; stroke: #bcbcbc; stroke-width: 0.8; stroke-linejoin: miter; stroke-linecap: square"/>
   </g>
   <g id="patch_31">
    <path d="M 258.137954 92.592182
L 340.298804 92.592182
" style="fill: none; stroke: #bcbcbc; stroke-width: 0.8; stroke-linejoin: miter; stroke-linecap: square"/>
   </g>
  </g>
  <g id="axes_7">
   <g id="patch_32">
    <path d="M 69.168 245.508
L 151.32885 245.508
L 151.32885 174.384364
L 69.168 174.384364
z
" style="fill: #eeeeee"/>
   </g>
   <g id="matplotlib.axis_13">
    <g id="xtick_13">
     <g id="line2d_61">
      <path d="M 104.608607 245.508
L 104.608607 174.384364
" clip-path="url(#p71b099a36f)" style="fill: none; stroke-dasharray: 1.85,0.8; stroke-dashoffset: 0; stroke: #b2b2b2; stroke-width: 0.5"/>
     </g>
     <g id="line2d_62">
      <g>
       <use xlink:href="#m013cd7d25e" x="104.608607" y="245.508" style="stroke: #000000; stroke-width: 0.8"/>
      </g>
     </g>
     <g id="text_7">
      <!-- $\mathdefault{10^{-7}}$ -->
      <g transform="translate(92.858607 256.606438) scale(0.1 -0.1)">
       <defs>
        <path id="DejaVuSans-37" d="M 525 4666
L 3525 4666
L 3525 4397
L 1831 0
L 1172 0
L 2766 4134
L 525 4134
L 525 4666
z
" transform="scale(0.015625)"/>
       </defs>
       <use xlink:href="#DejaVuSans-31" transform="translate(0 0.684375)"/>
       <use xlink:href="#DejaVuSans-30" transform="translate(63.623047 0.684375)"/>
       <use xlink:href="#DejaVuSans-2212" transform="translate(128.203125 38.965625) scale(0.7)"/>
       <use xlink:href="#DejaVuSans-37" transform="translate(186.855469 38.965625) scale(0.7)"/>
      </g>
     </g>
    </g>
    <g id="xtick_14">
     <g id="line2d_63">
      <path d="M 148.158436 245.508
L 148.158436 174.384364
" clip-path="url(#p71b099a36f)" style="fill: none; stroke-dasharray: 1.85,0.8; stroke-dashoffset: 0; stroke: #b2b2b2; stroke-width: 0.5"/>
     </g>
     <g id="line2d_64">
      <g>
       <use xlink:href="#m013cd7d25e" x="148.158436" y="245.508" style="stroke: #000000; stroke-width: 0.8"/>
      </g>
     </g>
     <g id="text_8">
      <!-- $\mathdefault{10^{-4}}$ -->
      <g transform="translate(136.408436 256.606438) scale(0.1 -0.1)">
       <defs>
        <path id="DejaVuSans-34" d="M 2419 4116
L 825 1625
L 2419 1625
L 2419 4116
z
M 2253 4666
L 3047 4666
L 3047 1625
L 3713 1625
L 3713 1100
L 3047 1100
L 3047 0
L 2419 0
L 2419 1100
L 313 1100
L 313 1709
L 2253 4666
z
" transform="scale(0.015625)"/>
       </defs>
       <use xlink:href="#DejaVuSans-31" transform="translate(0 0.684375)"/>
       <use xlink:href="#DejaVuSans-30" transform="translate(63.623047 0.684375)"/>
       <use xlink:href="#DejaVuSans-2212" transform="translate(128.203125 38.965625) scale(0.7)"/>
       <use xlink:href="#DejaVuSans-34" transform="translate(186.855469 38.965625) scale(0.7)"/>
      </g>
     </g>
    </g>
    <g id="text_9">
     <!-- Cmpd [M] -->
     <g transform="translate(80.830612 271.80425) scale(0.12 -0.12)">
      <defs>
       <path id="DejaVuSans-43" d="M 4122 4306
L 4122 3641
Q 3803 3938 3442 4084
Q 3081 4231 2675 4231
Q 1875 4231 1450 3742
Q 1025 3253 1025 2328
Q 1025 1406 1450 917
Q 1875 428 2675 428
Q 3081 428 3442 575
Q 3803 722 4122 1019
L 4122 359
Q 3791 134 3420 21
Q 3050 -91 2638 -91
Q 1578 -91 968 557
Q 359 1206 359 2328
Q 359 3453 968 4101
Q 1578 4750 2638 4750
Q 3056 4750 3426 4639
Q 3797 4528 4122 4306
z
" transform="scale(0.015625)"/>
       <path id="DejaVuSans-6d" d="M 3328 2828
Q 3544 3216 3844 3400
Q 4144 3584 4550 3584
Q 5097 3584 5394 3201
Q 5691 2819 5691 2113
L 5691 0
L 5113 0
L 5113 2094
Q 5113 2597 4934 2840
Q 4756 3084 4391 3084
Q 3944 3084 3684 2787
Q 3425 2491 3425 1978
L 3425 0
L 2847 0
L 2847 2094
Q 2847 2600 2669 2842
Q 2491 3084 2119 3084
Q 1678 3084 1418 2786
Q 1159 2488 1159 1978
L 1159 0
L 581 0
L 581 3500
L 1159 3500
L 1159 2956
Q 1356 3278 1631 3431
Q 1906 3584 2284 3584
Q 2666 3584 2933 3390
Q 3200 3197 3328 2828
z
" transform="scale(0.015625)"/>
       <path id="DejaVuSans-70" d="M 1159 525
L 1159 -1331
L 581 -1331
L 581 3500
L 1159 3500
L 1159 2969
Q 1341 3281 1617 3432
Q 1894 3584 2278 3584
Q 2916 3584 3314 3078
Q 3713 2572 3713 1747
Q 3713 922 3314 415
Q 2916 -91 2278 -91
Q 1894 -91 1617 61
Q 1341 213 1159 525
z
M 3116 1747
Q 3116 2381 2855 2742
Q 2594 3103 2138 3103
Q 1681 3103 1420 2742
Q 1159 2381 1159 1747
Q 1159 1113 1420 752
Q 1681 391 2138 391
Q 2594 391 2855 752
Q 3116 1113 3116 1747
z
" transform="scale(0.015625)"/>
       <path id="DejaVuSans-64" d="M 2906 2969
L 2906 4863
L 3481 4863
L 3481 0
L 2906 0
L 2906 525
Q 2725 213 2448 61
Q 2172 -91 1784 -91
Q 1150 -91 751 415
Q 353 922 353 1747
Q 353 2572 751 3078
Q 1150 3584 1784 3584
Q 2172 3584 2448 3432
Q 2725 3281 2906 2969
z
M 947 1747
Q 947 1113 1208 752
Q 1469 391 1925 391
Q 2381 391 2643 752
Q 2906 1113 2906 1747
Q 2906 2381 2643 2742
Q 2381 3103 1925 3103
Q 1469 3103 1208 2742
Q 947 2381 947 1747
z
" transform="scale(0.015625)"/>
       <path id="DejaVuSans-20" transform="scale(0.015625)"/>
       <path id="DejaVuSans-5b" d="M 550 4863
L 1875 4863
L 1875 4416
L 1125 4416
L 1125 -397
L 1875 -397
L 1875 -844
L 550 -844
L 550 4863
z
" transform="scale(0.015625)"/>
       <path id="DejaVuSans-4d" d="M 628 4666
L 1569 4666
L 2759 1491
L 3956 4666
L 4897 4666
L 4897 0
L 4281 0
L 4281 4097
L 3078 897
L 2444 897
L 1241 4097
L 1241 0
L 628 0
L 628 4666
z
" transform="scale(0.015625)"/>
       <path id="DejaVuSans-5d" d="M 1947 4863
L 1947 -844
L 622 -844
L 622 -397
L 1369 -397
L 1369 4416
L 622 4416
L 622 4863
L 1947 4863
z
" transform="scale(0.015625)"/>
      </defs>
      <use xlink:href="#DejaVuSans-43"/>
      <use xlink:href="#DejaVuSans-6d" x="69.824219"/>
      <use xlink:href="#DejaVuSans-70" x="167.236328"/>
      <use xlink:href="#DejaVuSans-64" x="230.712891"/>
      <use xlink:href="#DejaVuSans-20" x="294.189453"/>
      <use xlink:href="#DejaVuSans-5b" x="325.976562"/>
      <use xlink:href="#DejaVuSans-4d" x="364.990234"/>
      <use xlink:href="#DejaVuSans-5d" x="451.269531"/>
     </g>
    </g>
   </g>
   <g id="matplotlib.axis_14">
    <g id="ytick_13">
     <g id="line2d_65">
      <path d="M 69.168 242.99259
L 151.32885 242.99259
" clip-path="url(#p71b099a36f)" style="fill: none; stroke-dasharray: 1.85,0.8; stroke-dashoffset: 0; stroke: #b2b2b2; stroke-width: 0.5"/>
     </g>
     <g id="line2d_66">
      <g>
       <use xlink:href="#md3f6238ff1" x="69.168" y="242.99259" style="stroke: #000000; stroke-width: 0.8"/>
      </g>
     </g>
     <g id="text_10">
      <!-- −100 -->
      <g transform="translate(38.200813 246.791809) scale(0.1 -0.1)">
       <use xlink:href="#DejaVuSans-2212"/>
       <use xlink:href="#DejaVuSans-31" x="83.789062"/>
       <use xlink:href="#DejaVuSans-30" x="147.412109"/>
       <use xlink:href="#DejaVuSans-30" x="211.035156"/>
      </g>
     </g>
    </g>
    <g id="ytick_14">
     <g id="line2d_67">
      <path d="M 69.168 208.653401
L 151.32885 208.653401
" clip-path="url(#p71b099a36f)" style="fill: none; stroke-dasharray: 1.85,0.8; stroke-dashoffset: 0; stroke: #b2b2b2; stroke-width: 0.5"/>
     </g>
     <g id="line2d_68">
      <g>
       <use xlink:href="#md3f6238ff1" x="69.168" y="208.653401" style="stroke: #000000; stroke-width: 0.8"/>
      </g>
     </g>
     <g id="text_11">
      <!-- 0 -->
      <g transform="translate(59.3055 212.45262) scale(0.1 -0.1)">
       <use xlink:href="#DejaVuSans-30"/>
      </g>
     </g>
    </g>
    <g id="text_12">
     <!-- Activity -->
     <g transform="translate(18.267813 232.385244) rotate(-90) scale(0.12 -0.12)">
      <use xlink:href="#DejaVuSans-41"/>
      <use xlink:href="#DejaVuSans-63" x="66.658203"/>
      <use xlink:href="#DejaVuSans-74" x="121.638672"/>
      <use xlink:href="#DejaVuSans-69" x="160.847656"/>
      <use xlink:href="#DejaVuSans-76" x="188.630859"/>
      <use xlink:href="#DejaVuSans-69" x="247.810547"/>
      <use xlink:href="#DejaVuSans-74" x="275.59375"/>
      <use xlink:href="#DejaVuSans-79" x="314.802734"/>
     </g>
     <!-- (%) -->
     <g transform="translate(31.705188 220.328994) rotate(-90) scale(0.12 -0.12)">
      <use xlink:href="#DejaVuSans-28"/>
      <use xlink:href="#DejaVuSans-25" x="39.013672"/>
      <use xlink:href="#DejaVuSans-29" x="134.033203"/>
     </g>
    </g>
   </g>
   <g id="line2d_69">
    <defs>
     <path id="m94b5caf00b" d="M 0 2
C 0.530406 2 1.03916 1.789267 1.414214 1.414214
C 1.789267 1.03916 2 0.530406 2 0
C 2 -0.530406 1.789267 -1.03916 1.414214 -1.414214
C 1.03916 -1.789267 0.530406 -2 0 -2
C -0.530406 -2 -1.03916 -1.789267 -1.414214 -1.414214
C -1.789267 -1.03916 -2 -0.530406 -2 0
C -2 0.530406 -1.789267 1.03916 -1.414214 1.414214
C -1.03916 1.789267 -0.530406 2 0 2
z
" style="stroke: #e377c2"/>
    </defs>
    <g clip-path="url(#p71b099a36f)">
     <use xlink:href="#m94b5caf00b" x="72.902584" y="208.653401" style="fill: #ffffff; stroke: #e377c2"/>
     <use xlink:href="#m94b5caf00b" x="79.817955" y="208.294041" style="fill: #ffffff; stroke: #e377c2"/>
     <use xlink:href="#m94b5caf00b" x="86.754851" y="208.653401" style="fill: #ffffff; stroke: #e377c2"/>
     <use xlink:href="#m94b5caf00b" x="93.797689" y="208.192363" style="fill: #ffffff; stroke: #e377c2"/>
     <use xlink:href="#m94b5caf00b" x="100.606028" y="212.249367" style="fill: #ffffff; stroke: #e377c2"/>
     <use xlink:href="#m94b5caf00b" x="107.492435" y="220.949887" style="fill: #ffffff; stroke: #e377c2"/>
     <use xlink:href="#m94b5caf00b" x="114.405303" y="226.757262" style="fill: #ffffff; stroke: #e377c2"/>
     <use xlink:href="#m94b5caf00b" x="121.331486" y="230.072814" style="fill: #ffffff; stroke: #e377c2"/>
     <use xlink:href="#m94b5caf00b" x="128.257669" y="232.392804" style="fill: #ffffff; stroke: #e377c2"/>
     <use xlink:href="#m94b5caf00b" x="135.183358" y="234.062719" style="fill: #ffffff; stroke: #e377c2"/>
     <use xlink:href="#m94b5caf00b" x="142.109541" y="233.922924" style="fill: #ffffff; stroke: #e377c2"/>
    </g>
   </g>
   <g id="line2d_70">
    <path d="M 72.902584 207.923554
L 74.314971 207.935435
L 75.727358 207.950771
L 77.139745 207.97056
L 78.552132 207.996084
L 79.964518 208.028989
L 81.376905 208.07138
L 82.789292 208.125947
L 84.201679 208.196108
L 85.614066 208.286192
L 87.026453 208.401646
L 88.43884 208.549269
L 89.851227 208.737463
L 91.263613 208.976466
L 92.676 209.278534
L 94.088387 209.657989
L 95.500774 210.13102
L 96.913161 210.715111
L 98.325548 211.427906
L 99.737935 212.285392
L 101.150322 213.299335
L 102.562709 214.474165
L 103.975095 215.803781
L 105.387482 217.269132
L 106.799869 218.837539
L 108.212256 220.464583
L 109.624643 222.098628
L 111.03703 223.687149
L 112.449417 225.183293
L 113.861804 226.551002
L 115.27419 227.767611
L 116.686577 228.823796
L 118.098964 229.721515
L 119.511351 230.470922
L 120.923738 231.087168
L 122.336125 231.587671
L 123.748512 231.99009
L 125.160899 232.311034
L 126.573285 232.565344
L 127.985672 232.765823
L 129.398059 232.923227
L 130.810446 233.046419
L 132.222833 233.142594
L 133.63522 233.217531
L 135.047607 233.275833
L 136.459994 233.321138
L 137.87238 233.356311
L 139.284767 233.383599
L 140.697154 233.404758
L 142.109541 233.421158
" clip-path="url(#p71b099a36f)" style="fill: none; stroke-dasharray: 5.55,2.4; stroke-dashoffset: 0; stroke: #000000; stroke-width: 1.5"/>
   </g>
   <g id="patch_33">
    <path d="M 69.168 245.508
L 69.168 174.384364
" style="fill: none; stroke: #bcbcbc; stroke-width: 0.8; stroke-linejoin: miter; stroke-linecap: square"/>
   </g>
   <g id="patch_34">
    <path d="M 151.32885 245.508
L 151.32885 174.384364
" style="fill: none; stroke: #bcbcbc; stroke-width: 0.8; stroke-linejoin: miter; stroke-linecap: square"/>
   </g>
   <g id="patch_35">
    <path d="M 69.168 245.508
L 151.32885 245.508
" style="fill: none; stroke: #bcbcbc; stroke-width: 0.8; stroke-linejoin: miter; stroke-linecap: square"/>
   </g>
   <g id="patch_36">
    <path d="M 69.168 174.384364
L 151.32885 174.384364
" style="fill: none; stroke: #bcbcbc; stroke-width: 0.8; stroke-linejoin: miter; stroke-linecap: square"/>
   </g>
  </g>
  <g id="axes_8">
   <g id="patch_37">
    <path d="M 163.652977 245.508
L 245.813827 245.508
L 245.813827 174.384364
L 163.652977 174.384364
z
" style="fill: #eeeeee"/>
   </g>
   <g id="matplotlib.axis_15">
    <g id="xtick_15">
     <g id="line2d_71">
      <path d="M 199.093584 245.508
L 199.093584 174.384364
" clip-path="url(#pf8da359ff9)" style="fill: none; stroke-dasharray: 1.85,0.8; stroke-dashoffset: 0; stroke: #b2b2b2; stroke-width: 0.5"/>
     </g>
     <g id="line2d_72">
      <g>
       <use xlink:href="#m013cd7d25e" x="199.093584" y="245.508" style="stroke: #000000; stroke-width: 0.8"/>
      </g>
     </g>
     <g id="text_13">
      <!-- $\mathdefault{10^{-7}}$ -->
      <g transform="translate(187.343584 256.606438) scale(0.1 -0.1)">
       <use xlink:href="#DejaVuSans-31" transform="translate(0 0.684375)"/>
       <use xlink:href="#DejaVuSans-30" transform="translate(63.623047 0.684375)"/>
       <use xlink:href="#DejaVuSans-2212" transform="translate(128.203125 38.965625) scale(0.7)"/>
       <use xlink:href="#DejaVuSans-37" transform="translate(186.855469 38.965625) scale(0.7)"/>
      </g>
     </g>
    </g>
    <g id="xtick_16">
     <g id="line2d_73">
      <path d="M 242.643413 245.508
L 242.643413 174.384364
" clip-path="url(#pf8da359ff9)" style="fill: none; stroke-dasharray: 1.85,0.8; stroke-dashoffset: 0; stroke: #b2b2b2; stroke-width: 0.5"/>
     </g>
     <g id="line2d_74">
      <g>
       <use xlink:href="#m013cd7d25e" x="242.643413" y="245.508" style="stroke: #000000; stroke-width: 0.8"/>
      </g>
     </g>
     <g id="text_14">
      <!-- $\mathdefault{10^{-4}}$ -->
      <g transform="translate(230.893413 256.606438) scale(0.1 -0.1)">
       <use xlink:href="#DejaVuSans-31" transform="translate(0 0.684375)"/>
       <use xlink:href="#DejaVuSans-30" transform="translate(63.623047 0.684375)"/>
       <use xlink:href="#DejaVuSans-2212" transform="translate(128.203125 38.965625) scale(0.7)"/>
       <use xlink:href="#DejaVuSans-34" transform="translate(186.855469 38.965625) scale(0.7)"/>
      </g>
     </g>
    </g>
    <g id="text_15">
     <!-- Cmpd [M] -->
     <g transform="translate(175.315589 271.80425) scale(0.12 -0.12)">
      <use xlink:href="#DejaVuSans-43"/>
      <use xlink:href="#DejaVuSans-6d" x="69.824219"/>
      <use xlink:href="#DejaVuSans-70" x="167.236328"/>
      <use xlink:href="#DejaVuSans-64" x="230.712891"/>
      <use xlink:href="#DejaVuSans-20" x="294.189453"/>
      <use xlink:href="#DejaVuSans-5b" x="325.976562"/>
      <use xlink:href="#DejaVuSans-4d" x="364.990234"/>
      <use xlink:href="#DejaVuSans-5d" x="451.269531"/>
     </g>
    </g>
   </g>
   <g id="matplotlib.axis_16">
    <g id="ytick_15">
     <g id="line2d_75">
      <path d="M 163.652977 242.99259
L 245.813827 242.99259
" clip-path="url(#pf8da359ff9)" style="fill: none; stroke-dasharray: 1.85,0.8; stroke-dashoffset: 0; stroke: #b2b2b2; stroke-width: 0.5"/>
     </g>
     <g id="line2d_76">
      <g>
       <use xlink:href="#md3f6238ff1" x="163.652977" y="242.99259" style="stroke: #000000; stroke-width: 0.8"/>
      </g>
     </g>
    </g>
    <g id="ytick_16">
     <g id="line2d_77">
      <path d="M 163.652977 208.653401
L 245.813827 208.653401
" clip-path="url(#pf8da359ff9)" style="fill: none; stroke-dasharray: 1.85,0.8; stroke-dashoffset: 0; stroke: #b2b2b2; stroke-width: 0.5"/>
     </g>
     <g id="line2d_78">
      <g>
       <use xlink:href="#md3f6238ff1" x="163.652977" y="208.653401" style="stroke: #000000; stroke-width: 0.8"/>
      </g>
     </g>
    </g>
   </g>
   <g id="line2d_79">
    <defs>
     <path id="mc6ff6a6366" d="M 0 2
C 0.530406 2 1.03916 1.789267 1.414214 1.414214
C 1.789267 1.03916 2 0.530406 2 0
C 2 -0.530406 1.789267 -1.03916 1.414214 -1.414214
C 1.03916 -1.789267 0.530406 -2 0 -2
C -0.530406 -2 -1.03916 -1.789267 -1.414214 -1.414214
C -1.789267 -1.03916 -2 -0.530406 -2 0
C -2 0.530406 -1.789267 1.03916 -1.414214 1.414214
C -1.03916 1.789267 -0.530406 2 0 2
z
" style="stroke: #7f7f7f"/>
    </defs>
    <g clip-path="url(#pf8da359ff9)">
     <use xlink:href="#mc6ff6a6366" x="168.436956" y="208.395823" style="fill: #ffffff; stroke: #7f7f7f"/>
     <use xlink:href="#mc6ff6a6366" x="175.473783" y="210.954504" style="fill: #ffffff; stroke: #7f7f7f"/>
     <use xlink:href="#mc6ff6a6366" x="182.399966" y="209.354745" style="fill: #ffffff; stroke: #7f7f7f"/>
     <use xlink:href="#mc6ff6a6366" x="189.254506" y="209.589075" style="fill: #ffffff; stroke: #7f7f7f"/>
     <use xlink:href="#mc6ff6a6366" x="196.279975" y="208.929832" style="fill: #ffffff; stroke: #7f7f7f"/>
     <use xlink:href="#mc6ff6a6366" x="203.140141" y="209.174464" style="fill: #ffffff; stroke: #7f7f7f"/>
     <use xlink:href="#mc6ff6a6366" x="210.055254" y="208.328209" style="fill: #ffffff; stroke: #7f7f7f"/>
     <use xlink:href="#mc6ff6a6366" x="216.981437" y="208.517418" style="fill: #ffffff; stroke: #7f7f7f"/>
     <use xlink:href="#mc6ff6a6366" x="223.906389" y="206.666879" style="fill: #ffffff; stroke: #7f7f7f"/>
     <use xlink:href="#mc6ff6a6366" x="230.832572" y="194.201581" style="fill: #ffffff; stroke: #7f7f7f"/>
     <use xlink:href="#mc6ff6a6366" x="237.758755" y="177.622037" style="fill: #ffffff; stroke: #7f7f7f"/>
    </g>
   </g>
   <g id="line2d_80">
    <path d="M 168.436956 209.21812
L 169.851686 209.21812
L 171.266417 209.21812
L 172.681147 209.21812
L 174.095878 209.21812
L 175.510609 209.218119
L 176.925339 209.218119
L 178.34007 209.218118
L 179.7548 209.218117
L 181.169531 209.218115
L 182.584262 209.218113
L 183.998992 209.218109
L 185.413723 209.218102
L 186.828453 209.218093
L 188.243184 209.218077
L 189.657915 209.218053
L 191.072645 209.218016
L 192.487376 209.217959
L 193.902106 209.217869
L 195.316837 209.21773
L 196.731568 209.217513
L 198.146298 209.217177
L 199.561029 209.216654
L 200.975759 209.21584
L 202.39049 209.214576
L 203.805221 209.21261
L 205.219951 209.209555
L 206.634682 209.204807
L 208.049412 209.197427
L 209.464143 209.185961
L 210.878874 209.16815
L 212.293604 209.140495
L 213.708335 209.097585
L 215.123065 209.031075
L 216.537796 208.928154
L 217.952526 208.769293
L 219.367257 208.525045
L 220.781988 208.151765
L 222.196718 207.586491
L 223.611449 206.74225
L 225.026179 205.507098
L 226.44091 203.753474
L 227.855641 201.367003
L 229.270371 198.299906
L 230.685102 194.635388
L 232.099832 190.620134
L 233.514563 186.617159
L 234.929294 182.985157
L 236.344024 179.96078
L 237.758755 177.617256
" clip-path="url(#pf8da359ff9)" style="fill: none; stroke-dasharray: 5.55,2.4; stroke-dashoffset: 0; stroke: #000000; stroke-width: 1.5"/>
   </g>
   <g id="patch_38">
    <path d="M 163.652977 245.508
L 163.652977 174.384364
" style="fill: none; stroke: #bcbcbc; stroke-width: 0.8; stroke-linejoin: miter; stroke-linecap: square"/>
   </g>
   <g id="patch_39">
    <path d="M 245.813827 245.508
L 245.813827 174.384364
" style="fill: none; stroke: #bcbcbc; stroke-width: 0.8; stroke-linejoin: miter; stroke-linecap: square"/>
   </g>
   <g id="patch_40">
    <path d="M 163.652977 245.508
L 245.813827 245.508
" style="fill: none; stroke: #bcbcbc; stroke-width: 0.8; stroke-linejoin: miter; stroke-linecap: square"/>
   </g>
   <g id="patch_41">
    <path d="M 163.652977 174.384364
L 245.813827 174.384364
" style="fill: none; stroke: #bcbcbc; stroke-width: 0.8; stroke-linejoin: miter; stroke-linecap: square"/>
   </g>
  </g>
  <g id="axes_9">
   <g id="patch_42">
    <path d="M 258.137954 245.508
L 340.298804 245.508
L 340.298804 174.384364
L 258.137954 174.384364
z
" style="fill: #eeeeee"/>
   </g>
   <g id="matplotlib.axis_17">
    <g id="xtick_17">
     <g id="line2d_81">
      <path d="M 293.578561 245.508
L 293.578561 174.384364
" clip-path="url(#p66847a1014)" style="fill: none; stroke-dasharray: 1.85,0.8; stroke-dashoffset: 0; stroke: #b2b2b2; stroke-width: 0.5"/>
     </g>
     <g id="line2d_82">
      <g>
       <use xlink:href="#m013cd7d25e" x="293.578561" y="245.508" style="stroke: #000000; stroke-width: 0.8"/>
      </g>
     </g>
     <g id="text_16">
      <!-- $\mathdefault{10^{-7}}$ -->
      <g transform="translate(281.828561 256.606438) scale(0.1 -0.1)">
       <use xlink:href="#DejaVuSans-31" transform="translate(0 0.684375)"/>
       <use xlink:href="#DejaVuSans-30" transform="translate(63.623047 0.684375)"/>
       <use xlink:href="#DejaVuSans-2212" transform="translate(128.203125 38.965625) scale(0.7)"/>
       <use xlink:href="#DejaVuSans-37" transform="translate(186.855469 38.965625) scale(0.7)"/>
      </g>
     </g>
    </g>
    <g id="xtick_18">
     <g id="line2d_83">
      <path d="M 337.12839 245.508
L 337.12839 174.384364
" clip-path="url(#p66847a1014)" style="fill: none; stroke-dasharray: 1.85,0.8; stroke-dashoffset: 0; stroke: #b2b2b2; stroke-width: 0.5"/>
     </g>
     <g id="line2d_84">
      <g>
       <use xlink:href="#m013cd7d25e" x="337.12839" y="245.508" style="stroke: #000000; stroke-width: 0.8"/>
      </g>
     </g>
     <g id="text_17">
      <!-- $\mathdefault{10^{-4}}$ -->
      <g transform="translate(325.37839 256.606438) scale(0.1 -0.1)">
       <use xlink:href="#DejaVuSans-31" transform="translate(0 0.684375)"/>
       <use xlink:href="#DejaVuSans-30" transform="translate(63.623047 0.684375)"/>
       <use xlink:href="#DejaVuSans-2212" transform="translate(128.203125 38.965625) scale(0.7)"/>
       <use xlink:href="#DejaVuSans-34" transform="translate(186.855469 38.965625) scale(0.7)"/>
      </g>
     </g>
    </g>
    <g id="text_18">
     <!-- Cmpd [M] -->
     <g transform="translate(269.800566 271.80425) scale(0.12 -0.12)">
      <use xlink:href="#DejaVuSans-43"/>
      <use xlink:href="#DejaVuSans-6d" x="69.824219"/>
      <use xlink:href="#DejaVuSans-70" x="167.236328"/>
      <use xlink:href="#DejaVuSans-64" x="230.712891"/>
      <use xlink:href="#DejaVuSans-20" x="294.189453"/>
      <use xlink:href="#DejaVuSans-5b" x="325.976562"/>
      <use xlink:href="#DejaVuSans-4d" x="364.990234"/>
      <use xlink:href="#DejaVuSans-5d" x="451.269531"/>
     </g>
    </g>
   </g>
   <g id="matplotlib.axis_18">
    <g id="ytick_17">
     <g id="line2d_85">
      <path d="M 258.137954 242.99259
L 340.298804 242.99259
" clip-path="url(#p66847a1014)" style="fill: none; stroke-dasharray: 1.85,0.8; stroke-dashoffset: 0; stroke: #b2b2b2; stroke-width: 0.5"/>
     </g>
     <g id="line2d_86">
      <g>
       <use xlink:href="#md3f6238ff1" x="258.137954" y="242.99259" style="stroke: #000000; stroke-width: 0.8"/>
      </g>
     </g>
    </g>
    <g id="ytick_18">
     <g id="line2d_87">
      <path d="M 258.137954 208.653401
L 340.298804 208.653401
" clip-path="url(#p66847a1014)" style="fill: none; stroke-dasharray: 1.85,0.8; stroke-dashoffset: 0; stroke: #b2b2b2; stroke-width: 0.5"/>
     </g>
     <g id="line2d_88">
      <g>
       <use xlink:href="#md3f6238ff1" x="258.137954" y="208.653401" style="stroke: #000000; stroke-width: 0.8"/>
      </g>
     </g>
    </g>
   </g>
   <g id="line2d_89">
    <defs>
     <path id="m959ff84d5e" d="M 0 2
C 0.530406 2 1.03916 1.789267 1.414214 1.414214
C 1.789267 1.03916 2 0.530406 2 0
C 2 -0.530406 1.789267 -1.03916 1.414214 -1.414214
C 1.03916 -1.789267 0.530406 -2 0 -2
C -0.530406 -2 -1.03916 -1.789267 -1.414214 -1.414214
C -1.789267 -1.03916 -2 -0.530406 -2 0
C -2 0.530406 -1.789267 1.03916 -1.414214 1.414214
C -1.03916 1.789267 -0.530406 2 0 2
z
" style="stroke: #17becf"/>
    </defs>
    <g clip-path="url(#p66847a1014)">
     <use xlink:href="#m959ff84d5e" x="261.872538" y="208.653401" style="fill: #ffffff; stroke: #17becf"/>
     <use xlink:href="#m959ff84d5e" x="268.78791" y="211.978636" style="fill: #ffffff; stroke: #17becf"/>
     <use xlink:href="#m959ff84d5e" x="275.724805" y="208.653401" style="fill: #ffffff; stroke: #17becf"/>
     <use xlink:href="#m959ff84d5e" x="282.767643" y="207.352083" style="fill: #ffffff; stroke: #17becf"/>
     <use xlink:href="#m959ff84d5e" x="289.575982" y="211.162978" style="fill: #ffffff; stroke: #17becf"/>
     <use xlink:href="#m959ff84d5e" x="296.462389" y="222.350377" style="fill: #ffffff; stroke: #17becf"/>
     <use xlink:href="#m959ff84d5e" x="303.375257" y="240.111567" style="fill: #ffffff; stroke: #17becf"/>
     <use xlink:href="#m959ff84d5e" x="310.30144" y="240.452727" style="fill: #ffffff; stroke: #17becf"/>
     <use xlink:href="#m959ff84d5e" x="317.227623" y="241.402961" style="fill: #ffffff; stroke: #17becf"/>
     <use xlink:href="#m959ff84d5e" x="324.153312" y="241.602952" style="fill: #ffffff; stroke: #17becf"/>
     <use xlink:href="#m959ff84d5e" x="331.079495" y="239.812988" style="fill: #ffffff; stroke: #17becf"/>
    </g>
   </g>
   <g id="line2d_90">
    <path d="M 261.872538 209.392758
L 263.284925 209.392759
L 264.697312 209.392761
L 266.109699 209.392764
L 267.522086 209.39277
L 268.934473 209.392782
L 270.346859 209.392807
L 271.759246 209.392858
L 273.171633 209.392961
L 274.58402 209.393169
L 275.996407 209.393589
L 277.408794 209.394439
L 278.821181 209.396157
L 280.233568 209.399633
L 281.645954 209.40666
L 283.058341 209.420862
L 284.470728 209.449545
L 285.883115 209.507398
L 287.295502 209.623757
L 288.707889 209.856477
L 290.120276 210.316732
L 291.532663 211.207141
L 292.945049 212.858505
L 294.357436 215.694329
L 295.769823 219.976075
L 297.18221 225.330547
L 298.594597 230.647575
L 300.006984 234.846165
L 301.419371 237.601303
L 302.831758 239.196386
L 304.244144 240.053629
L 305.656531 240.495969
L 307.068918 240.719431
L 308.481305 240.83111
L 309.893692 240.886624
L 311.306079 240.914145
L 312.718466 240.927771
L 314.130853 240.934512
L 315.54324 240.937846
L 316.955626 240.939495
L 318.368013 240.94031
L 319.7804 240.940714
L 321.192787 240.940913
L 322.605174 240.941011
L 324.017561 240.94106
L 325.429948 240.941084
L 326.842335 240.941096
L 328.254721 240.941102
L 329.667108 240.941105
L 331.079495 240.941106
" clip-path="url(#p66847a1014)" style="fill: none; stroke-dasharray: 5.55,2.4; stroke-dashoffset: 0; stroke: #000000; stroke-width: 1.5"/>
   </g>
   <g id="patch_43">
    <path d="M 258.137954 245.508
L 258.137954 174.384364
" style="fill: none; stroke: #bcbcbc; stroke-width: 0.8; stroke-linejoin: miter; stroke-linecap: square"/>
   </g>
   <g id="patch_44">
    <path d="M 340.298804 245.508
L 340.298804 174.384364
" style="fill: none; stroke: #bcbcbc; stroke-width: 0.8; stroke-linejoin: miter; stroke-linecap: square"/>
   </g>
   <g id="patch_45">
    <path d="M 258.137954 245.508
L 340.298804 245.508
" style="fill: none; stroke: #bcbcbc; stroke-width: 0.8; stroke-linejoin: miter; stroke-linecap: square"/>
   </g>
   <g id="patch_46">
    <path d="M 258.137954 174.384364
L 340.298804 174.384364
" style="fill: none; stroke: #bcbcbc; stroke-width: 0.8; stroke-linejoin: miter; stroke-linecap: square"/>
   </g>
  </g>
 </g>
 <defs>
  <clipPath id="pb410326647">
   <rect x="69.168" y="10.8" width="82.16085" height="71.123636"/>
  </clipPath>
  <clipPath id="pfaeeb39fdd">
   <rect x="163.652977" y="10.8" width="82.16085" height="71.123636"/>
  </clipPath>
  <clipPath id="p8247e0afea">
   <rect x="258.137954" y="10.8" width="82.16085" height="71.123636"/>
  </clipPath>
  <clipPath id="p6e6c542a4e">
   <rect x="69.168" y="92.592182" width="82.16085" height="71.123636"/>
  </clipPath>
  <clipPath id="p83d4d17fda">
   <rect x="163.652977" y="92.592182" width="82.16085" height="71.123636"/>
  </clipPath>
  <clipPath id="pfd55b35341">
   <rect x="258.137954" y="92.592182" width="82.16085" height="71.123636"/>
  </clipPath>
  <clipPath id="p71b099a36f">
   <rect x="69.168" y="174.384364" width="82.16085" height="71.123636"/>
  </clipPath>
  <clipPath id="pf8da359ff9">
   <rect x="163.652977" y="174.384364" width="82.16085" height="71.123636"/>
  </clipPath>
  <clipPath id="p66847a1014">
   <rect x="258.137954" y="174.384364" width="82.16085" height="71.123636"/>
  </clipPath>
 </defs>
</svg>
